<svg aria-hidden="true" style="position:absolute;width:0;height:0;overflow:hidden" xmlns="http://www.w3.org/2000/svg">
  <defs>
    <symbol id="icon-facebook" viewBox="0 0 32 32">
      <path d="M30.233 0H1.766C.79 0-.001.791-.001 1.767v28.468C-.001 31.21.79 32 1.766 32h15.327V19.608h-4.171v-4.829h4.171v-3.561c0-4.133 2.524-6.384 6.212-6.384 1.767 0 3.284.132 3.727.191v4.32l-2.557.001c-2.005 0-2.393.953-2.393 2.351v3.084h4.783l-.623 4.829h-4.16v12.391h8.155c.973 0 1.764-.791 1.764-1.767V1.767C32.001.791 31.21 0 30.234 0z"/>
    </symbol>
    <symbol id="icon-pinterest" viewBox="0 0 32 32">
      <path d="M16 0C7.164 0 0 7.163 0 16c0 6.779 4.217 12.568 10.169 14.899-.14-1.265-.267-3.207.056-4.588.291-1.249 1.876-7.953 1.876-7.953s-.479-.959-.479-2.376c0-2.224 1.289-3.885 2.895-3.885 1.364 0 2.024 1.025 2.024 2.253 0 1.372-.873 3.424-1.325 5.327-.377 1.592.799 2.892 2.369 2.892 2.844 0 5.029-2.999 5.029-7.327 0-3.831-2.752-6.509-6.683-6.509-4.552 0-7.224 3.415-7.224 6.943 0 1.375.529 2.851 1.191 3.651a.483.483 0 0 1 .111.46L9.565 21.6c-.071.293-.232.356-.536.215-1.999-.931-3.248-3.852-3.248-6.199 0-5.047 3.667-9.683 10.572-9.683 5.551 0 9.864 3.956 9.864 9.241 0 5.515-3.476 9.952-8.303 9.952-1.621 0-3.145-.841-3.667-1.837l-.997 3.804c-.361 1.391-1.336 3.133-1.989 4.195 1.499.463 3.089.713 4.739.713 8.836 0 16-7.164 16-16 0-8.837-7.164-16-16-16z"/>
    </symbol>
    <symbol id="icon-share" viewBox="0 0 37 32">
      <path d="M36.923 15.988 21.578.034v9.518h-3.262C8.2 9.552 0 17.327 0 26.918v5.044l1.449-1.505c4.927-5.118 11.898-8.034 19.206-8.034h.923v9.518l15.345-15.954z"/>
    </symbol>
    <symbol id="icon-twitter" viewBox="0 0 38 32">
      <path d="M37.647 4.089a15.43 15.43 0 0 1-4.436 1.216 7.733 7.733 0 0 0 3.396-4.273 15.476 15.476 0 0 1-4.905 1.875A7.71 7.71 0 0 0 26.064.468c-4.987 0-8.651 4.653-7.525 9.482-6.417-.322-12.108-3.396-15.918-8.069C.597 5.352 1.572 9.894 5.01 12.193a7.69 7.69 0 0 1-3.496-.966c-.085 3.578 2.48 6.925 6.194 7.671a7.744 7.744 0 0 1-3.489.132 7.729 7.729 0 0 0 7.216 5.363A15.53 15.53 0 0 1 0 27.593a21.868 21.868 0 0 0 11.84 3.47c14.34 0 22.442-12.111 21.953-22.974a15.719 15.719 0 0 0 3.854-3.998z"/>
    </symbol>
  </defs>
</svg>